<svg width="37" height="53" viewBox="0 0 37 53" fill="none" xmlns="http://www.w3.org/2000/svg">
<rect width="37" height="53" fill="#D9D9D9"/>
<path d="M10.8466 15.1534C10.4318 15.1534 10.0554 15.0753 9.71733 14.919C9.37926 14.7599 9.1108 14.5312 8.91193 14.233C8.71307 13.9318 8.61364 13.5682 8.61364 13.142C8.61364 12.767 8.6875 12.4631 8.83523 12.2301C8.98295 11.9943 9.1804 11.8097 9.42756 11.6761C9.67472 11.5426 9.94744 11.4432 10.2457 11.3778C10.5469 11.3097 10.8494 11.2557 11.1534 11.2159C11.5511 11.1648 11.8736 11.1264 12.1207 11.1009C12.3707 11.0724 12.5526 11.0256 12.6662 10.9602C12.7827 10.8949 12.8409 10.7812 12.8409 10.6193V10.5852C12.8409 10.1648 12.7259 9.83807 12.4957 9.60511C12.2685 9.37216 11.9233 9.25568 11.4602 9.25568C10.9801 9.25568 10.6037 9.3608 10.331 9.57102C10.0582 9.78125 9.86648 10.0057 9.75568 10.2443L8.80114 9.90341C8.97159 9.50568 9.19886 9.19602 9.48295 8.97443C9.76989 8.75 10.0824 8.59375 10.4205 8.50568C10.7614 8.41477 11.0966 8.36932 11.4261 8.36932C11.6364 8.36932 11.8778 8.39489 12.1506 8.44602C12.4261 8.49432 12.6918 8.59517 12.9474 8.74858C13.206 8.90199 13.4205 9.13352 13.5909 9.44318C13.7614 9.75284 13.8466 10.1676 13.8466 10.6875V15H12.8409V14.1136H12.7898C12.7216 14.2557 12.608 14.4077 12.4489 14.5696C12.2898 14.7315 12.0781 14.8693 11.8139 14.983C11.5497 15.0966 11.2273 15.1534 10.8466 15.1534ZM11 14.25C11.3977 14.25 11.733 14.1719 12.0057 14.0156C12.2813 13.8594 12.4886 13.6577 12.6278 13.4105C12.7699 13.1634 12.8409 12.9034 12.8409 12.6307V11.7102C12.7983 11.7614 12.7045 11.8082 12.5597 11.8509C12.4176 11.8906 12.2528 11.9261 12.0653 11.9574C11.8807 11.9858 11.7003 12.0114 11.5241 12.0341C11.3509 12.054 11.2102 12.071 11.1023 12.0852C10.8409 12.1193 10.5966 12.1747 10.3693 12.2514C10.1449 12.3253 9.96307 12.4375 9.82386 12.5881C9.6875 12.7358 9.61932 12.9375 9.61932 13.1932C9.61932 13.5426 9.74858 13.8068 10.0071 13.9858C10.2685 14.1619 10.5994 14.25 11 14.25ZM15.8185 15V6.27273H16.8242V9.49432H16.9094C16.9833 9.38068 17.0856 9.2358 17.2163 9.05966C17.3498 8.88068 17.5401 8.72159 17.7873 8.58239C18.0373 8.44034 18.3754 8.36932 18.8015 8.36932C19.3526 8.36932 19.8384 8.5071 20.2589 8.78267C20.6793 9.05824 21.0075 9.44886 21.2433 9.95455C21.479 10.4602 21.5969 11.0568 21.5969 11.7443C21.5969 12.4375 21.479 13.0384 21.2433 13.5469C21.0075 14.0526 20.6808 14.4446 20.2631 14.723C19.8455 14.9986 19.364 15.1364 18.8185 15.1364C18.3981 15.1364 18.0614 15.0668 17.8086 14.9276C17.5558 14.7855 17.3612 14.625 17.2248 14.446C17.0884 14.2642 16.9833 14.1136 16.9094 13.9943H16.7901V15H15.8185ZM16.8072 11.7273C16.8072 12.2216 16.8796 12.6577 17.0245 13.0355C17.1694 13.4105 17.381 13.7045 17.6594 13.9176C17.9379 14.1278 18.2788 14.233 18.6822 14.233C19.1026 14.233 19.4535 14.1222 19.7347 13.9006C20.0188 13.6761 20.2319 13.375 20.3739 12.9972C20.5188 12.6165 20.5913 12.1932 20.5913 11.7273C20.5913 11.267 20.5202 10.8523 20.3782 10.483C20.239 10.1108 20.0273 9.81676 19.7433 9.60085C19.462 9.3821 19.1083 9.27273 18.6822 9.27273C18.2731 9.27273 17.9293 9.37642 17.6509 9.58381C17.3725 9.78835 17.1623 10.0753 17.0202 10.4446C16.8782 10.8111 16.8072 11.2386 16.8072 11.7273ZM25.7944 15.1364C25.1808 15.1364 24.6523 14.9915 24.2092 14.7017C23.766 14.4119 23.4251 14.0128 23.1864 13.5043C22.9478 12.9957 22.8285 12.4148 22.8285 11.7614C22.8285 11.0966 22.9506 10.5099 23.195 10.0014C23.4421 9.49006 23.7859 9.09091 24.2262 8.80398C24.6694 8.5142 25.1864 8.36932 25.7773 8.36932C26.2376 8.36932 26.6523 8.45455 27.0217 8.625C27.391 8.79545 27.6935 9.03409 27.9293 9.34091C28.1651 9.64773 28.3114 10.0057 28.3683 10.4148H27.3626C27.2859 10.1165 27.1154 9.85227 26.8512 9.62216C26.5898 9.3892 26.2376 9.27273 25.7944 9.27273C25.4023 9.27273 25.0586 9.375 24.7631 9.57955C24.4705 9.78125 24.2418 10.0668 24.0771 10.4361C23.9151 10.8026 23.8342 11.233 23.8342 11.7273C23.8342 12.233 23.9137 12.6733 24.0728 13.0483C24.2347 13.4233 24.462 13.7145 24.7546 13.9219C25.0501 14.1293 25.3967 14.233 25.7944 14.233C26.0558 14.233 26.293 14.1875 26.506 14.0966C26.7191 14.0057 26.8995 13.875 27.0472 13.7045C27.195 13.5341 27.3001 13.3295 27.3626 13.0909H28.3683C28.3114 13.4773 28.1708 13.8253 27.9464 14.1349C27.7248 14.4418 27.4308 14.6861 27.0643 14.8679C26.7006 15.0469 26.2773 15.1364 25.7944 15.1364Z" fill="black"/>
</svg>
